# Blender v2.92.0 OBJ File: 'ironSword.blend'
# www.blender.org
mtllib ironSword.mtl
o Sword_Cube.002
v -0.029256 4.545177 -1.361850
v -0.029256 4.478465 -1.361850
v 0.062098 4.545177 -1.268089
v 0.062098 4.478466 -1.268089
v 0.066247 4.545177 -1.454901
v 0.066247 4.478466 -1.454901
v 0.157601 4.545177 -1.361140
v 0.157601 4.478466 -1.361140
v -0.007452 4.545177 -1.291710
v -0.007452 4.478465 -1.291710
v 0.135797 4.545177 -1.431280
v 0.135797 4.478466 -1.431280
v -0.020335 4.545177 -1.324849
v 0.103003 4.478466 -1.445021
v -0.020335 4.478465 -1.324849
v 0.103003 4.545177 -1.445021
v 0.025342 4.478465 -1.277969
v 0.148680 4.545177 -1.398141
v 0.025342 4.545177 -1.277969
v 0.148680 4.478466 -1.398141
v 0.109849 4.545177 -1.314615
v 0.109849 4.478466 -1.314615
v 0.018496 4.545177 -1.408375
v 0.018496 4.478466 -1.408375
v 0.064173 4.478466 -1.361495
v 0.064172 4.545177 -1.361495
v 0.041334 4.478466 -1.384935
v 0.041334 4.545177 -1.384935
v 0.087011 4.545177 -1.338055
v 0.087011 4.478466 -1.338055
v 0.053680 4.487965 -1.343397
v 0.053680 4.187900 -1.343397
v 0.086747 4.487965 -1.375616
v 0.086747 4.187900 -1.375616
v 0.070214 4.187900 -1.359506
v 0.070214 4.487965 -1.359506
v 0.078227 4.187900 -1.367314
v 0.078227 4.487965 -1.367314
v 0.062200 4.487965 -1.351699
v 0.062200 4.187900 -1.351699
v 0.058194 4.487965 -1.347795
v 0.058194 4.187900 -1.347795
v 0.082234 4.187900 -1.371218
v 0.082234 4.487965 -1.371218
v 0.074220 4.487965 -1.363410
v 0.074220 4.187900 -1.363410
v 0.066207 4.187900 -1.355603
v 0.066207 4.487965 -1.355603
v 0.046870 4.487965 -1.350387
v 0.046870 4.187900 -1.350387
v 0.060490 4.487965 -1.336407
v 0.060490 4.187900 -1.336407
v 0.079937 4.487965 -1.382605
v 0.079937 4.187900 -1.382605
v 0.093558 4.487965 -1.368626
v 0.093558 4.187900 -1.368626
v 0.082950 4.487965 -1.346435
v 0.082950 4.187900 -1.346435
v 0.057478 4.487965 -1.372578
v 0.057478 4.187900 -1.372578
v 0.090079 4.187900 -1.355150
v 0.066375 4.487965 -1.379478
v 0.090079 4.487965 -1.355150
v 0.066375 4.187900 -1.379478
v 0.074052 4.487965 -1.339535
v 0.050349 4.187900 -1.363863
v 0.074052 4.187900 -1.339535
v 0.050349 4.487965 -1.363863
v 0.068828 4.487965 -1.336880
v 0.047559 4.187900 -1.358710
v 0.068828 4.187900 -1.336880
v 0.047559 4.487965 -1.358710
v 0.092868 4.187900 -1.360303
v 0.071599 4.487965 -1.382133
v 0.092868 4.487965 -1.360303
v 0.071599 4.187900 -1.382133
v 0.086956 4.487965 -1.350338
v 0.061484 4.187900 -1.376482
v 0.086956 4.187900 -1.350339
v 0.061484 4.487965 -1.376482
v 0.078943 4.187900 -1.342531
v 0.053471 4.487965 -1.368674
v 0.078943 4.487965 -1.342531
v 0.053471 4.187900 -1.368674
v 0.025119 4.537642 -1.329574
v 0.034489 4.537642 -1.319957
v 0.090940 4.537642 -1.396076
v 0.102853 4.537642 -1.384196
v 0.073583 4.537642 -1.348835
v 0.055003 4.537642 -1.367905
v 0.029010 4.537642 -1.336053
v 0.041067 4.537642 -1.323679
v 0.100521 4.537642 -1.379717
v 0.086575 4.537642 -1.394031
v 0.018201 4.737642 -1.313461
v 0.018201 4.537642 -1.313461
v 0.108586 4.737642 -1.401525
v 0.064395 4.537642 -1.358468
v 0.028583 4.537642 -1.323576
v 0.100207 4.537642 -1.393361
v 0.015330 4.737642 -1.339621
v 0.015330 4.537642 -1.339621
v 0.044281 4.737642 -1.309908
v 0.044281 4.537642 -1.309908
v 0.083154 4.737642 -1.404413
v 0.078675 4.537642 -1.408664
v 0.110814 4.737642 -1.376024
v 0.115120 4.537642 -1.371605
v 0.083751 4.737642 -1.338399
v 0.092998 4.537642 -1.328908
v 0.044838 4.737642 -1.378337
v 0.035591 4.537642 -1.387828
v 0.053666 4.737642 -1.310748
v 0.016414 4.537642 -1.348981
v 0.053666 4.537642 -1.310748
v 0.016414 4.737642 -1.348981
v 0.115095 4.537642 -1.364759
v 0.074986 4.737642 -1.405925
v 0.112113 4.737642 -1.367820
v 0.072004 4.537642 -1.408985
v 0.018202 4.737642 -1.313459
v 0.018203 4.537642 -1.313459
v 0.108587 4.737642 -1.401524
v 0.108587 4.537642 -1.401524
v 0.015330 5.589411 -1.339621
v 0.044281 5.589411 -1.309907
v 0.083154 5.589411 -1.404413
v 0.110814 5.589411 -1.376024
v 0.083751 5.589411 -1.338399
v 0.044838 5.589411 -1.378337
v 0.053666 5.589411 -1.310748
v 0.016414 5.589411 -1.348981
v 0.074986 5.589411 -1.405925
v 0.112113 5.589411 -1.367820
v 0.018202 5.589411 -1.313459
v 0.108587 5.589411 -1.401524
v 0.031601 5.647062 -1.355475
v 0.060552 5.647062 -1.325761
v 0.067239 5.647062 -1.388906
v 0.094898 5.647062 -1.360517
v 0.083573 5.646532 -1.338226
v 0.044660 5.646532 -1.378164
v 0.074258 5.647062 -1.330812
v 0.037006 5.647062 -1.369045
v 0.054038 5.647062 -1.385514
v 0.091165 5.647062 -1.347409
v 0.036246 5.647062 -1.331039
v 0.090900 5.647062 -1.384290
v 0.049694 5.689390 -1.372457
v 0.077999 5.689390 -1.343406
v 0.082556 5.684003 -1.338722
v 0.045013 5.684003 -1.377254
v 0.063846 5.698778 -1.357931
vt 0.375000 0.125000
vt 0.625000 0.125000
vt 0.625000 0.250000
vt 0.375000 0.250000
vt 0.375000 0.625000
vt 0.625000 0.625000
vt 0.625000 0.750000
vt 0.375000 0.750000
vt 0.343750 0.625000
vt 0.343750 0.750000
vt 0.843750 0.625000
vt 0.875000 0.625000
vt 0.875000 0.750000
vt 0.843750 0.750000
vt 0.718750 0.625000
vt 0.750000 0.625000
vt 0.750000 0.750000
vt 0.718750 0.750000
vt 0.218750 0.625000
vt 0.250000 0.625000
vt 0.250000 0.750000
vt 0.218750 0.750000
vt 0.218750 0.500000
vt 0.250000 0.500000
vt 0.718750 0.500000
vt 0.750000 0.500000
vt 0.843750 0.500000
vt 0.875000 0.500000
vt 0.343750 0.500000
vt 0.375000 0.500000
vt 0.625000 0.500000
vt 0.375000 0.000000
vt 0.625000 0.000000
vt 0.281250 0.500000
vt 0.312500 0.500000
vt 0.312500 0.625000
vt 0.281250 0.625000
vt 0.656250 0.500000
vt 0.687500 0.500000
vt 0.687500 0.625000
vt 0.656250 0.625000
vt 0.687500 0.750000
vt 0.656250 0.750000
vt 0.312500 0.750000
vt 0.281250 0.750000
vt 0.781250 0.500000
vt 0.812500 0.500000
vt 0.812500 0.625000
vt 0.781250 0.625000
vt 0.156250 0.500000
vt 0.187500 0.500000
vt 0.187500 0.625000
vt 0.156250 0.625000
vt 0.187500 0.750000
vt 0.156250 0.750000
vt 0.812500 0.750000
vt 0.781250 0.750000
vt 0.125000 0.625000
vt 0.125000 0.750000
vt 0.125000 0.500000
vt 0.375000 0.468750
vt 0.625000 0.468750
vt 0.375000 0.968750
vt 0.625000 0.968750
vt 0.625000 1.000000
vt 0.375000 1.000000
vt 0.375000 0.843750
vt 0.625000 0.843750
vt 0.625000 0.875000
vt 0.375000 0.875000
vt 0.375000 0.343750
vt 0.625000 0.343750
vt 0.625000 0.375000
vt 0.375000 0.375000
vt 0.375000 0.781250
vt 0.625000 0.781250
vt 0.625000 0.812500
vt 0.375000 0.812500
vt 0.375000 0.406250
vt 0.625000 0.406250
vt 0.625000 0.437500
vt 0.375000 0.437500
vt 0.375000 0.281250
vt 0.625000 0.281250
vt 0.625000 0.312500
vt 0.375000 0.312500
vt 0.375000 0.906250
vt 0.625000 0.906250
vt 0.625000 0.937500
vt 0.375000 0.937500
vt 0.011325 0.018988
vt 0.011509 0.019598
vt 0.011416 0.018888
vt 0.011359 0.006061
vt 0.010998 0.014947
vt 0.010956 0.015924
vt 0.012235 0.018415
vt 0.011094 0.008686
vt 0.010746 0.010147
vt 0.011241 0.000019
vt 0.012091 0.005594
vt 0.011049 0.014697
vt 0.010389 0.018282
vt 0.010725 0.018903
vt 0.011361 0.074528
vt 0.011324 0.019787
vt 0.011515 0.018764
vt 0.022710 0.074142
vt 0.015322 0.011146
vt 0.010802 0.008267
vt 0.011260 0.073470
vt 0.011025 0.011747
vt 0.020719 0.074864
vt 0.013645 0.018949
vt 0.011065 0.019330
vt 0.000019 0.074331
vt 0.007324 0.013729
vt 0.010091 0.017796
vt 0.001961 0.074624
vt 0.009218 0.018167
vt 0.012658 0.016552
vt 0.012232 0.074467
vt 0.010322 0.074862
vt 0.011458 0.073731
vt 0.012363 0.074972
vt 0.011082 0.073566
vt 0.010484 0.074585
vt 0.012084 0.965995
vt 0.012027 0.966045
vt 0.001002 0.964746
vt 0.001512 0.965316
vt 0.011206 0.966302
vt 0.022710 0.965074
vt 0.012109 0.963950
vt 0.010553 0.965854
vt 0.010353 0.075504
vt 0.020405 0.964598
vt 0.010738 0.962687
vt 0.011941 0.966269
vt 0.009929 0.965765
vt 0.010806 0.977829
vt 0.008764 0.976277
vt 0.012670 0.975988
vt 0.015692 0.977157
vt 0.013234 0.976322
vt 0.011646 0.978660
vt 0.011391 0.978679
vt 0.009289 0.975870
vt 0.011171 0.978521
vt 0.006169 0.977015
vt 0.010978 0.975417
vt 0.011137 0.977821
vt 0.011033 0.989301
vt 0.011032 0.967853
vt 0.010998 0.969289
vt 0.010974 0.999981
vt 0.010988 0.992412
vt 0.011002 0.995722
vt 0.042206 0.000019
vt 0.042206 0.023375
vt 0.022747 0.023190
vt 0.011045 0.010106
vt 0.042204 0.046914
vt 0.042835 0.000019
vt 0.042835 0.039209
vt 0.042243 0.019613
vt 0.375000 0.187500
vt 0.625000 0.187500
vt 0.625000 0.250000
vt 0.375000 0.250000
vt 0.375000 0.375000
vt 0.625000 0.375000
vt 0.625000 0.500000
vt 0.375000 0.500000
vt 0.375000 0.687500
vt 0.625000 0.687500
vt 0.625000 0.750000
vt 0.375000 0.750000
vt 0.375000 0.875000
vt 0.625000 0.875000
vt 0.625000 1.000000
vt 0.375000 1.000000
vt 0.250000 0.687500
vt 0.250000 0.750000
vt 0.750000 0.687500
vt 0.875000 0.687500
vt 0.875000 0.750000
vt 0.750000 0.750000
vt 0.750000 0.562500
vt 0.875000 0.562500
vt 0.875000 0.625000
vt 0.750000 0.625000
vt 0.250000 0.562500
vt 0.375000 0.562500
vt 0.375000 0.625000
vt 0.250000 0.625000
vt 0.625000 0.562500
vt 0.625000 0.625000
vt 0.375000 0.062500
vt 0.625000 0.062500
vt 0.625000 0.125000
vt 0.375000 0.125000
vt 0.375000 0.000000
vt 0.625000 0.000000
vt 0.250000 0.500000
vt 0.750000 0.500000
vt 0.875000 0.500000
vt 0.125000 0.500000
vt 0.125000 0.562500
vt 0.125000 0.625000
vt 0.125000 0.687500
vt 0.125000 0.750000
vn -0.7162 -0.0000 0.6979
vn 0.7162 0.0000 -0.6979
vn 0.0000 1.0000 -0.0000
vn 0.0000 -1.0000 0.0000
vn 0.9966 0.0000 0.0826
vn -0.9966 -0.0000 -0.0826
vn -0.6979 -0.0000 -0.7162
vn 0.6979 0.0000 0.7162
vn -0.4530 0.0000 -0.8915
vn 0.8389 -0.0000 0.5444
vn 0.4530 0.0000 0.8915
vn -0.8389 -0.0000 -0.5444
vn 0.0566 0.0000 0.9984
vn -0.8794 -0.0000 -0.4761
vn -0.0566 0.0000 -0.9984
vn 0.8794 0.0000 0.4761
vn 0.6978 -0.0000 0.7163
vn -0.5224 0.0000 -0.8527
vn -0.6978 -0.0000 -0.7162
vn 0.5224 0.0000 0.8527
vn -0.1350 -0.0000 0.9909
vn 0.9999 0.0150 0.0037
vn 0.2322 0.0000 -0.9727
vn -0.9934 -0.0000 -0.1150
vn -0.5023 0.0207 -0.8645
vn 0.4192 0.0000 0.9079
vn 0.0892 0.0000 0.9960
vn -0.8949 0.0623 -0.4418
vn 0.0481 0.0201 -0.9986
vn 0.8495 0.0641 0.5236
vn 0.9768 0.0163 -0.2133
vn -0.9940 -0.0000 0.1091
vn 0.1129 0.0000 -0.9936
vn 0.1820 0.0000 -0.9833
vn 0.7199 0.0000 0.6940
vn 0.6767 -0.0000 0.7363
vn -0.7184 0.0000 -0.6956
vn -0.6751 0.0000 -0.7377
vn 0.9962 0.0000 -0.0870
vn 0.9877 0.0000 -0.1564
vn -0.2016 0.3122 0.9284
vn 0.1682 0.3827 -0.9084
vn 0.1825 0.3021 -0.9357
vn 0.7681 0.0532 0.6381
vn -0.7183 0.0145 -0.6955
vn 0.6228 -0.0004 0.7824
vn -0.9173 0.1584 -0.3654
vn -0.9399 0.3256 0.1032
vn -0.6169 0.0005 -0.7870
vn 0.3388 0.1990 0.9196
vn 0.9445 0.1884 0.2690
vn 0.9456 0.3148 -0.0826
vn 0.6235 0.0273 0.7814
vn -0.8346 0.4712 0.2852
vn -0.8344 0.5278 0.1586
vn -0.6176 0.0249 -0.7861
vn -0.5001 0.2873 0.8169
vn 0.8404 0.4547 -0.2949
vn 0.8455 0.5148 -0.1422
vn -0.4411 0.4941 0.7492
vn -0.2459 0.1539 -0.9570
vn 0.4530 0.4798 -0.7514
vn 0.7696 0.0293 0.6379
vn 0.6228 0.4939 -0.6068
vn -0.7651 0.0228 -0.6435
vn 0.0000 -1.0000 0.0001
vn 0.0000 -1.0000 0.0003
vn 0.9875 0.0178 -0.1564
vn 0.1129 0.0186 -0.9934
vn -0.6736 0.0661 -0.7361
vn 0.6752 0.0661 0.7346
vn 0.1820 0.0123 -0.9832
vn 0.7198 0.0213 0.6939
vn -0.1276 0.3256 0.9369
vn -0.2444 0.1884 -0.9512
vn 0.1071 0.3148 -0.9431
vn 0.7199 0.0001 0.6940
vn -0.7660 -0.0004 -0.6429
vn 0.6766 0.0145 0.7362
vn -0.9475 0.3003 -0.1097
vn -0.9333 0.3122 0.1774
vn -0.6750 0.0159 -0.7376
vn 0.0865 0.2414 0.9666
vn 0.9125 0.3827 -0.1445
vn 0.9401 0.3021 -0.1581
vn -0.9225 0.1183 -0.3675
vn -0.7604 0.4941 0.4215
vn 0.3355 0.2413 0.9106
vn 0.9497 0.1577 0.2705
vn 0.7629 0.4798 -0.4333
vn -0.1802 0.5278 0.8300
vn 0.3241 0.4564 -0.8286
vn 0.1641 0.5148 -0.8415
vn -0.6179 0.5057 0.6021
vn -0.2336 0.6923 0.6827
vn -0.2336 -0.6923 0.6827
vn 0.1996 -0.6109 0.7661
vn 0.1996 0.6109 0.7661
vn 0.4935 0.7071 0.5065
vn 0.4935 -0.7071 0.5065
vn 0.7607 -0.6109 0.2195
vn 0.7607 0.6109 0.2195
vn 0.2336 0.6923 -0.6827
vn 0.2336 -0.6923 -0.6827
vn -0.1996 -0.6109 -0.7661
vn -0.1996 0.6109 -0.7661
vn -0.4935 0.7071 -0.5065
vn -0.4935 -0.7071 -0.5065
vn -0.7607 -0.6109 -0.2195
vn -0.7607 0.6109 -0.2195
vn -0.6886 -0.6923 0.2158
vn -0.5569 -0.6288 0.5426
vn 0.6886 0.6923 -0.2158
vn 0.5569 0.6288 -0.5426
vn 0.6886 -0.6923 -0.2158
vn 0.5569 -0.6288 -0.5426
vn -0.6886 0.6923 0.2158
vn -0.5569 0.6288 0.5426
usemtl Material
s off
f 31/1/1 32/2/1 52/3/1 51/4/1
f 33/5/2 34/6/2 54/7/2 53/8/2
f 44/9/3 33/5/3 53/8/3 74/10/3
f 42/11/4 32/12/4 50/13/4 70/14/4
f 46/15/4 35/16/4 60/17/4 78/18/4
f 48/19/3 36/20/3 59/21/3 82/22/3
f 83/23/3 57/24/3 36/20/3 48/19/3
f 79/25/4 58/26/4 35/16/4 46/15/4
f 71/27/4 52/28/4 32/12/4 42/11/4
f 75/29/3 55/30/3 33/5/3 44/9/3
f 55/30/2 56/31/2 34/6/2 33/5/2
f 49/32/1 50/33/1 32/2/1 31/1/1
f 77/34/3 63/35/3 38/36/3 45/37/3
f 73/38/4 61/39/4 37/40/4 43/41/4
f 43/41/4 37/40/4 64/42/4 76/43/4
f 45/37/3 38/36/3 62/44/3 80/45/3
f 81/46/4 67/47/4 40/48/4 47/49/4
f 69/50/3 65/51/3 39/52/3 41/53/3
f 41/53/3 39/52/3 68/54/3 72/55/3
f 47/49/4 40/48/4 66/56/4 84/57/4
f 31/58/3 41/53/3 72/55/3 49/59/3
f 51/60/3 69/50/3 41/53/3 31/58/3
f 67/47/4 71/27/4 42/11/4 40/48/4
f 40/48/4 42/11/4 70/14/4 66/56/4
f 34/6/4 43/41/4 76/43/4 54/7/4
f 56/31/4 73/38/4 43/41/4 34/6/4
f 63/35/3 75/29/3 44/9/3 38/36/3
f 38/36/3 44/9/3 74/10/3 62/44/3
f 36/20/3 45/37/3 80/45/3 59/21/3
f 57/24/3 77/34/3 45/37/3 36/20/3
f 61/39/4 79/25/4 46/15/4 37/40/4
f 37/40/4 46/15/4 78/18/4 64/42/4
f 35/16/4 47/49/4 84/57/4 60/17/4
f 58/26/4 81/46/4 47/49/4 35/16/4
f 65/51/3 83/23/3 48/19/3 39/52/3
f 39/52/3 48/19/3 82/22/3 68/54/3
f 75/61/5 73/62/5 56/31/5 55/30/5
f 72/63/6 70/64/6 50/65/6 49/66/6
f 80/67/7 78/68/7 60/69/7 59/70/7
f 83/71/8 81/72/8 58/73/8 57/74/8
f 74/75/9 76/76/9 64/77/9 62/78/9
f 77/79/10 79/80/10 61/81/10 63/82/10
f 69/83/11 71/84/11 67/85/11 65/86/11
f 82/87/12 84/88/12 66/89/12 68/90/12
f 51/4/13 52/3/13 71/84/13 69/83/13
f 68/90/14 66/89/14 70/64/14 72/63/14
f 53/8/15 54/7/15 76/76/15 74/75/15
f 63/82/16 61/81/16 73/62/16 75/61/16
f 57/74/17 58/73/17 79/80/17 77/79/17
f 62/78/18 64/77/18 78/68/18 80/67/18
f 59/70/19 60/69/19 84/88/19 82/87/19
f 65/86/20 67/85/20 81/72/20 83/71/20
f 99/91/4 96/92/4 85/93/4
f 100/94/4 98/95/4 90/96/4
f 98/95/4 99/91/4 91/97/4
f 124/98/4 100/94/4 94/99/4
f 88/100/4 93/101/4 100/94/4
f 89/102/4 92/103/4 99/91/4
f 93/101/4 89/102/4 98/95/4
f 92/103/4 86/104/4 96/92/4
f 121/105/21 122/106/21 104/107/21
f 119/108/22 117/109/22 108/110/22
f 123/111/23 124/98/23 106/112/23
f 116/113/24 114/114/24 102/115/24
f 118/116/25 120/117/25 112/118/25
f 113/119/26 115/120/26 110/121/26
f 103/122/27 104/107/27 115/120/27
f 111/123/28 112/118/28 114/114/28
f 105/124/29 106/112/29 120/117/29
f 109/125/30 110/121/30 117/109/30
f 107/126/31 108/110/31 124/98/31
f 101/127/32 102/115/32 122/106/32
f 105/124/33 127/128/33 136/129/33
f 105/124/34 118/116/34 133/130/34
f 113/119/27 131/131/27 126/132/27
f 119/108/35 134/133/35 129/134/35
f 109/125/36 129/134/36 131/131/36
f 103/122/21 126/132/21 135/135/21
f 111/136/37 116/113/37 132/137/37
f 111/136/38 130/138/38 133/130/38
f 107/126/39 123/111/39 136/129/39
f 101/127/32 121/105/32 135/135/32
f 107/126/40 128/139/40 134/133/40
f 101/127/24 125/140/24 132/137/24
f 126/132/41 138/141/41 147/142/41
f 127/128/42 133/130/42 145/143/42
f 127/128/43 139/144/43 148/145/43
f 134/133/44 146/146/44 141/147/44
f 130/138/45 132/137/45 144/148/45
f 129/134/46 141/147/46 143/149/46
f 125/140/47 137/150/47 144/148/47
f 125/140/48 135/135/48 147/142/48
f 130/138/49 142/151/49 145/143/49
f 131/131/50 143/149/50 138/141/50
f 128/139/51 140/152/51 146/146/51
f 128/139/52 136/129/52 148/145/52
f 141/147/53 151/153/53 143/149/53
f 137/150/54 149/154/54 152/155/54
f 137/150/55 147/142/55 153/156/55
f 142/151/56 152/155/56 145/143/56
f 143/149/57 151/153/57 150/157/57
f 140/152/58 150/157/58 151/153/58
f 140/152/59 148/145/59 153/156/59
f 138/141/60 150/157/60 153/156/60
f 139/144/61 145/143/61 152/155/61
f 139/144/62 149/158/62 153/156/62
f 146/146/63 151/153/63 141/147/63
f 139/159/64 149/160/64 150/161/64
f 142/151/65 144/148/65 152/155/65
f 94/99/66 120/117/66 106/112/66
f 106/112/4 124/98/4 87/162/4
f 90/96/4 112/118/4 120/117/4
f 91/97/4 114/114/4 112/118/4
f 85/93/4 102/115/4 114/114/4
f 96/92/4 102/115/4 85/93/4
f 104/107/4 122/106/4 86/104/4
f 92/103/66 115/120/66 104/107/66
f 89/102/4 110/121/4 115/120/4
f 93/101/4 117/109/4 110/121/4
f 88/100/4 108/110/4 117/109/4
f 108/110/4 88/100/4 124/98/4
f 99/91/4 85/93/4 91/97/4
f 100/94/4 90/96/4 94/99/4
f 98/95/4 91/97/4 90/96/4
f 124/98/67 94/99/67 87/162/67
f 88/100/66 100/94/66 124/98/66
f 89/102/4 99/91/4 98/95/4
f 93/101/4 98/95/4 100/94/4
f 92/103/4 96/92/4 99/91/4
f 121/105/21 104/107/21 103/122/21
f 119/108/68 108/110/68 107/126/68
f 123/111/69 106/112/69 105/124/69
f 116/113/24 102/115/24 101/127/24
f 118/116/70 112/118/70 111/123/70
f 113/119/71 110/121/71 109/125/71
f 103/122/27 115/120/27 113/119/27
f 111/123/37 114/114/37 116/113/37
f 105/124/72 120/117/72 118/116/72
f 109/125/73 117/109/73 119/108/73
f 107/126/39 124/98/39 123/111/39
f 101/127/32 122/106/32 121/105/32
f 105/124/33 136/129/33 123/111/33
f 105/124/34 133/130/34 127/128/34
f 113/119/27 126/132/27 103/122/27
f 119/108/35 129/134/35 109/125/35
f 109/125/36 131/131/36 113/119/36
f 103/122/21 135/135/21 121/105/21
f 111/136/37 132/137/37 130/138/37
f 111/136/38 133/130/38 118/116/38
f 107/126/39 136/129/39 128/139/39
f 101/127/32 135/135/32 125/140/32
f 107/126/40 134/133/40 119/108/40
f 101/127/24 132/137/24 116/113/24
f 126/132/74 147/142/74 135/135/74
f 127/128/75 145/143/75 139/144/75
f 127/128/76 148/145/76 136/129/76
f 134/133/77 141/147/77 129/134/77
f 130/138/78 144/148/78 142/151/78
f 129/134/79 143/149/79 131/131/79
f 125/140/80 144/148/80 132/137/80
f 125/140/81 147/142/81 137/150/81
f 130/138/82 145/143/82 133/130/82
f 131/131/83 138/141/83 126/132/83
f 128/139/84 146/146/84 134/133/84
f 128/139/85 148/145/85 140/152/85
f 137/150/86 152/155/86 144/148/86
f 137/150/87 153/156/87 149/158/87
f 143/149/88 150/157/88 138/141/88
f 140/152/89 151/153/89 146/146/89
f 140/152/90 153/156/90 150/157/90
f 138/141/91 153/156/91 147/142/91
f 139/144/92 152/155/92 149/154/92
f 139/144/93 153/156/93 148/145/93
f 137/163/94 150/161/94 149/160/94
f 116/164/3 118/165/3 111/166/3
f 94/99/4 106/112/4 87/162/4
f 90/96/4 120/117/4 94/99/4
f 91/97/4 112/118/4 90/96/4
f 85/93/4 114/114/4 91/97/4
f 92/103/4 104/107/4 86/104/4
f 89/102/4 115/120/4 92/103/4
f 93/101/4 110/121/4 89/102/4
f 88/100/4 117/109/4 93/101/4
s 1
f 19/167/95 17/168/96 4/169/97 3/170/98
f 21/171/99 22/172/100 8/173/101 7/174/102
f 16/175/103 14/176/104 6/177/105 5/178/106
f 23/179/107 24/180/108 2/181/109 1/182/110
f 28/183/3 16/175/103 5/178/106 23/184/107
f 27/185/4 15/186/111 2/187/109 24/188/108
f 30/189/4 17/190/96 10/191/112 25/192/4
f 29/193/3 18/194/113 11/195/114 26/196/3
f 18/194/113 20/197/115 12/198/116 11/195/114
f 13/199/117 15/200/111 10/201/112 9/202/118
f 1/203/110 2/204/109 15/200/111 13/199/117
f 25/192/4 10/191/112 15/186/111 27/185/4
f 26/196/3 11/195/114 16/175/103 28/183/3
f 11/195/114 12/198/116 14/176/104 16/175/103
f 7/174/102 8/173/101 20/197/115 18/194/113
f 21/205/99 7/174/102 18/194/113 29/193/3
f 22/206/100 4/207/97 17/190/96 30/189/4
f 9/202/118 10/201/112 17/168/96 19/167/95
f 8/173/101 22/206/100 30/189/4 20/197/115
f 3/208/98 21/205/99 29/193/3 19/209/95
f 9/210/118 26/196/3 28/183/3 13/211/117
f 12/198/116 25/192/4 27/185/4 14/176/104
f 19/209/95 29/193/3 26/196/3 9/210/118
f 20/197/115 30/189/4 25/192/4 12/198/116
f 14/176/104 27/185/4 24/188/108 6/177/105
f 13/211/117 28/183/3 23/184/107 1/212/110
f 5/178/106 6/177/105 24/180/108 23/179/107
f 3/170/98 4/169/97 22/172/100 21/171/99
l 140 127
l 138 125
